<svg width="52" height="58" viewBox="0 0 52 58" fill="none" xmlns="http://www.w3.org/2000/svg">
  <g filter="url(#filter0_dd)">
    <path fill-rule="evenodd" clip-rule="evenodd" d="M29.218 39.7132C37.6237 38.1961 44 30.8427 44 22C44 12.0589 35.9411 4 26 4C16.0589 4 8 12.0589 8 22C8 30.8496 14.3863 38.2076 22.8017 39.7167L25.5809 45.668C25.754 46.1107 26.3268 46.1107 26.5 45.668L29.218 39.7132Z" fill="white"/>
  </g>
  <circle cx="26" cy="22" r="16" fill="#FFE2DF"/>
  <circle cx="26.0002" cy="22" r="8.66667" fill="#F55538"/>
  <g filter="url(#filter1_d)">
    <path d="M20.667 21.6667C20.667 21.1144 21.1147 20.6667 21.667 20.6667H30.3337C30.8859 20.6667 31.3337 21.1144 31.3337 21.6667V22.3333C31.3337 22.8856 30.8859 23.3333 30.3337 23.3333H21.667C21.1147 23.3333 20.667 22.8856 20.667 22.3333V21.6667Z" fill="white"/>
  </g>
  <defs>
    <filter id="filter0_dd" x="0" y="0" width="52" height="58" filterUnits="userSpaceOnUse" color-interpolation-filters="sRGB">
      <feFlood flood-opacity="0" result="BackgroundImageFix"/>
      <feColorMatrix in="SourceAlpha" type="matrix" values="0 0 0 0 0 0 0 0 0 0 0 0 0 0 0 0 0 0 127 0" result="hardAlpha"/>
      <feOffset dy="2"/>
      <feGaussianBlur stdDeviation="2"/>
      <feColorMatrix type="matrix" values="0 0 0 0 0 0 0 0 0 0 0 0 0 0 0 0 0 0 0.24 0"/>
      <feBlend mode="normal" in2="BackgroundImageFix" result="effect1_dropShadow"/>
      <feColorMatrix in="SourceAlpha" type="matrix" values="0 0 0 0 0 0 0 0 0 0 0 0 0 0 0 0 0 0 127 0" result="hardAlpha"/>
      <feOffset dy="4"/>
      <feGaussianBlur stdDeviation="4"/>
      <feColorMatrix type="matrix" values="0 0 0 0 0 0 0 0 0 0 0 0 0 0 0 0 0 0 0.12 0"/>
      <feBlend mode="normal" in2="effect1_dropShadow" result="effect2_dropShadow"/>
      <feBlend mode="normal" in="SourceGraphic" in2="effect2_dropShadow" result="shape"/>
    </filter>
    <filter id="filter1_d" x="20.667" y="20.6667" width="10.6667" height="4.66667" filterUnits="userSpaceOnUse" color-interpolation-filters="sRGB">
      <feFlood flood-opacity="0" result="BackgroundImageFix"/>
      <feColorMatrix in="SourceAlpha" type="matrix" values="0 0 0 0 0 0 0 0 0 0 0 0 0 0 0 0 0 0 127 0" result="hardAlpha"/>
      <feOffset dy="2"/>
      <feColorMatrix type="matrix" values="0 0 0 0 0.831373 0 0 0 0 0.180392 0 0 0 0 0.109804 0 0 0 1 0"/>
      <feBlend mode="normal" in2="BackgroundImageFix" result="effect1_dropShadow"/>
      <feBlend mode="normal" in="SourceGraphic" in2="effect1_dropShadow" result="shape"/>
    </filter>
  </defs>
</svg>
